<svg width="32" height="32" viewBox="0 0 32 32" fill="none" xmlns="http://www.w3.org/2000/svg">
<path fill-rule="evenodd" clip-rule="evenodd" d="M4 16C4 15.6212 4.15048 15.2579 4.41834 14.99C4.6862 14.7222 5.0495 14.5717 5.42831 14.5717L23.1212 14.5717L16.988 8.44136C16.8552 8.30856 16.7499 8.15091 16.678 7.9774C16.6061 7.80389 16.5691 7.61792 16.5691 7.43012C16.5691 7.24231 16.6061 7.05634 16.678 6.88283C16.7499 6.70932 16.8552 6.55167 16.988 6.41887C17.1208 6.28607 17.2785 6.18073 17.452 6.10886C17.6255 6.03699 17.8114 6 17.9992 6C18.1871 6 18.373 6.03699 18.5465 6.10886C18.72 6.18073 18.8777 6.28607 19.0105 6.41887L27.5804 14.9888C27.7134 15.1214 27.8189 15.279 27.8909 15.4526C27.9629 15.6261 28 15.8121 28 16C28 16.1879 27.9629 16.3739 27.8909 16.5474C27.8189 16.721 27.7134 16.8786 27.5804 17.0112L19.0105 25.5811C18.7423 25.8493 18.3785 26 17.9992 26C17.62 26 17.2562 25.8493 16.988 25.5811C16.7198 25.3129 16.5691 24.9492 16.5691 24.5699C16.5691 24.1906 16.7198 23.8268 16.988 23.5586L23.1212 17.4283L5.42831 17.4283C5.0495 17.4283 4.6862 17.2778 4.41834 17.01C4.15048 16.7421 4 16.3788 4 16Z" fill="#FF00E5"/>
</svg>
