<svg width="30" height="30" viewBox="0 0 30 30" fill="none" xmlns="http://www.w3.org/2000/svg">
<g clip-path="url(#clip0_1_342)">
<path d="M15 24C15.5967 24 16.169 23.763 16.591 23.341C17.0129 22.919 17.25 22.3467 17.25 21.75H12.75C12.75 22.3467 12.9871 22.919 13.409 23.341C13.831 23.763 14.4033 24 15 24ZM15 8.15776L14.1034 8.33888C13.0863 8.54611 12.1721 9.09837 11.5155 9.90221C10.8588 10.706 10.5001 11.7121 10.5 12.75C10.5 13.4565 10.3492 15.2216 9.98362 16.9598C9.80362 17.8226 9.56063 18.7215 9.23775 19.5H20.7622C20.4394 18.7215 20.1975 17.8238 20.0164 16.9598C19.6507 15.2216 19.5 13.4565 19.5 12.75C19.4996 11.7123 19.1408 10.7065 18.4842 9.9029C17.8275 9.0993 16.9135 8.54719 15.8966 8.34001L15 8.15663V8.15776ZM21.9975 19.5C22.2484 20.0029 22.5386 20.4011 22.875 20.625H7.125C7.46137 20.4011 7.75162 20.0029 8.0025 19.5C9.015 17.475 9.375 13.74 9.375 12.75C9.375 10.0275 11.31 7.75501 13.8806 7.23638C13.8649 7.07996 13.8822 6.92197 13.9313 6.77263C13.9804 6.62328 14.0603 6.48588 14.1657 6.3693C14.2712 6.25271 14.3999 6.15953 14.5436 6.09575C14.6873 6.03197 14.8428 5.99902 15 5.99902C15.1572 5.99902 15.3127 6.03197 15.4564 6.09575C15.6001 6.15953 15.7288 6.25271 15.8343 6.3693C15.9397 6.48588 16.0196 6.62328 16.0687 6.77263C16.1178 6.92197 16.1351 7.07996 16.1194 7.23638C17.3909 7.49502 18.5341 8.18516 19.3551 9.18995C20.1762 10.1947 20.6248 11.4524 20.625 12.75C20.625 13.74 20.985 17.475 21.9975 19.5Z" fill="white"/>
</g>
<defs>
<clipPath id="clip0_1_342">
<rect width="18" height="18" fill="white" transform="translate(6 6)"/>
</clipPath>
</defs>
</svg>
