<svg width="30" height="30" viewBox="0 0 30 30" fill="none" xmlns="http://www.w3.org/2000/svg">
    <path fill-rule="evenodd" clip-rule="evenodd"
        d="M15.0602 11.1288H11.9005C11.7616 11.1288 11.669 11.1096 11.6227 11.0712C11.5764 11.025 11.5532 10.9327 11.5532 10.7942V9.19038C11.5532 9.05192 11.5764 8.96346 11.6227 8.925C11.669 8.87885 11.7616 8.85577 11.9005 8.85577H14.7014C14.8403 8.85577 14.9329 8.87885 14.9792 8.925C15.0255 8.96346 15.0486 9.05192 15.0486 9.19038V10.0904H16.1019V9.02885C16.1019 8.35192 15.7431 8.01346 15.0255 8.01346H13.8102V7.125H12.8148V8.01346H11.5764C10.8588 8.01346 10.5 8.35192 10.5 9.02885V10.9327C10.5 11.6173 10.8511 11.9596 11.5532 11.9596H14.7245C14.8634 11.9596 14.9522 11.9827 14.9907 12.0288C15.037 12.0673 15.0602 12.1558 15.0602 12.2942V14.0596C15.0602 14.1981 15.037 14.2904 14.9907 14.3365C14.9522 14.375 14.8634 14.3942 14.7245 14.3942H11.9236C11.7847 14.3942 11.6921 14.375 11.6458 14.3365C11.5995 14.2904 11.5764 14.1981 11.5764 14.0596V13.1596H10.5231V14.2212C10.5231 14.8981 10.8819 15.2365 11.5995 15.2365H12.8148V16.125H13.8102V15.2365H15.037C15.7623 15.2365 16.125 14.8981 16.125 14.2212V12.1442C16.125 11.4673 15.7701 11.1288 15.0602 11.1288ZM22.3125 13.3125H19.5C19.1894 13.3125 18.9375 13.5643 18.9375 13.875C18.9375 14.1857 19.1894 14.4375 19.5 14.4375H20.9545L16.5238 18.8682L12.9046 17.8341C12.732 17.7848 12.5463 17.8208 12.4047 17.931L7.34218 21.8685C7.09696 22.0592 7.05279 22.4126 7.24352 22.6578C7.43424 22.9031 7.78765 22.9472 8.03287 22.7565L12.87 18.9943L16.533 20.0409C16.7294 20.097 16.9408 20.0422 17.0853 19.8977L21.75 15.233V16.6875C21.75 16.9982 22.0019 17.25 22.3125 17.25C22.6232 17.25 22.875 16.9982 22.875 16.6875V13.875C22.875 13.5643 22.6232 13.3125 22.3125 13.3125Z"
        fill="white" />
</svg>