<svg width="30" height="30" viewBox="0 0 30 30" fill="none" xmlns="http://www.w3.org/2000/svg">
<g clip-path="url(#clip0_1_340)">
<path d="M15 6C15.1171 5.99992 15.2314 6.03759 15.3268 6.10775C15.4221 6.1779 15.4939 6.27705 15.5321 6.39135L16.1767 8.32254H21.75C22.0484 8.32254 22.3345 8.44488 22.5455 8.66266C22.7565 8.88044 22.875 9.17582 22.875 9.4838V17.6127C22.875 17.9207 22.7565 18.216 22.5455 18.4338C22.3345 18.6516 22.0484 18.7739 21.75 18.7739H19.6687L21.1571 23.2297C21.2058 23.3754 21.1963 23.5351 21.1309 23.6736C21.0655 23.8121 20.9495 23.9181 20.8084 23.9683C20.6672 24.0185 20.5126 24.0088 20.3784 23.9413C20.2442 23.8738 20.1415 23.754 20.0929 23.6083L18.4785 18.7739H15.5625V22.2578C15.5625 22.4117 15.5032 22.5594 15.3977 22.6683C15.2923 22.7772 15.1492 22.8384 15 22.8384C14.8508 22.8384 14.7077 22.7772 14.6023 22.6683C14.4968 22.5594 14.4375 22.4117 14.4375 22.2578V18.7739H11.5215L9.90713 23.6083C9.85849 23.754 9.75579 23.8738 9.6216 23.9413C9.48742 24.0088 9.33275 24.0185 9.19162 23.9683C9.0505 23.9181 8.93447 23.8121 8.86907 23.6736C8.80366 23.5351 8.79424 23.3754 8.84287 23.2297L10.3312 18.7739H8.25C7.95163 18.7739 7.66548 18.6516 7.4545 18.4338C7.24353 18.216 7.125 17.9207 7.125 17.6127V9.4838C7.125 9.17582 7.24353 8.88044 7.4545 8.66266C7.66548 8.44488 7.95163 8.32254 8.25 8.32254H13.8232L14.4679 6.39135C14.5061 6.27705 14.5779 6.1779 14.6732 6.10775C14.7686 6.03759 14.8829 5.99992 15 6V6ZM8.25 9.4838V17.6127H21.75V9.4838H8.25Z" fill="white"/>
</g>
<defs>
<clipPath id="clip0_1_340">
<rect width="18" height="18" fill="white" transform="translate(6 6)"/>
</clipPath>
</defs>
</svg>
