<svg width="32" height="32" viewBox="0 0 32 32" fill="none" xmlns="http://www.w3.org/2000/svg">
<g clip-path="url(#clip0_29_108)">
<path d="M26.3713 10.375H24.9945C25.0025 10.2722 25 10.6585 25 5.62867C25 4.73059 24.2694 4 23.3713 4H8.62867C7.73059 4 7 4.73059 7 5.62867C7 10.6477 6.99742 10.2714 7.00558 10.375H5.62867C4.73059 10.375 4 11.1056 4 12.0037V20.7463C4 21.6444 4.73059 22.375 5.62867 22.375H9.625V26.3713C9.625 27.2694 10.3556 28 11.2537 28H20.7463C21.6444 28 22.375 27.2694 22.375 26.3713V22.375H26.3713C27.2694 22.375 28 21.6444 28 20.7463V12.0037C28 11.1056 27.2694 10.375 26.3713 10.375ZM8.5 10.2463V5.62867C8.5 5.5577 8.5577 5.5 8.62867 5.5H23.3713C23.4423 5.5 23.5 5.5577 23.5 5.62867V10.2463C23.5 10.3173 23.4423 10.375 23.3713 10.375H8.62867C8.5577 10.375 8.5 10.3173 8.5 10.2463ZM20.875 26.3713C20.875 26.4423 20.8173 26.5 20.7463 26.5H11.2537C11.1827 26.5 11.125 26.4423 11.125 26.3713V18.7537C11.125 18.6827 11.1827 18.625 11.2537 18.625H20.7463C20.8173 18.625 20.875 18.6827 20.875 18.7537V26.3713ZM26.5 20.7463C26.5 20.8173 26.4423 20.875 26.3713 20.875H22.375V18.7537C22.375 17.8556 21.6444 17.125 20.7463 17.125H11.2537C10.3556 17.125 9.625 17.8556 9.625 18.7537V20.875H5.62867C5.5577 20.875 5.5 20.8173 5.5 20.7463V12.0037C5.5 11.9327 5.5577 11.875 5.62867 11.875H26.3713C26.4423 11.875 26.5 11.9327 26.5 12.0037V20.7463Z" fill="#009C34"/>
<path d="M24.25 14.5H23.125C22.7108 14.5 22.375 14.1642 22.375 13.75C22.375 13.3358 22.7108 13 23.125 13H24.25C24.6642 13 25 13.3358 25 13.75C25 14.1642 24.6642 14.5 24.25 14.5Z" fill="#009C34"/>
<path d="M18.25 21.625H13.75C13.3358 21.625 13 21.2892 13 20.875C13 20.4608 13.3358 20.125 13.75 20.125H18.25C18.6642 20.125 19 20.4608 19 20.875C19 21.2892 18.6642 21.625 18.25 21.625Z" fill="#009C34"/>
<path d="M18.25 25H13.75C13.3358 25 13 24.6642 13 24.25C13 23.8358 13.3358 23.5 13.75 23.5H18.25C18.6642 23.5 19 23.8358 19 24.25C19 24.6642 18.6642 25 18.25 25Z" fill="#009C34"/>
</g>
<defs>
<clipPath id="clip0_29_108">
<rect width="24" height="24" fill="white" transform="translate(4 4)"/>
</clipPath>
</defs>
</svg>
