<svg width="12" height="12" viewBox="0 0 12 12" fill="none" xmlns="http://www.w3.org/2000/svg">
<path d="M5.84453 7.59061C5.84315 7.59061 5.84176 7.59061 5.84038 7.59061C5.58556 7.5883 5.38061 7.37976 5.38291 7.12457L5.38499 6.89363C5.38499 6.88046 5.38568 6.86707 5.38707 6.85391C5.451 6.18209 5.89669 5.77032 6.25514 5.43938C6.37654 5.32715 6.49149 5.22114 6.58935 5.11052C6.70868 4.97588 6.88178 4.70014 6.69968 4.36735C6.48987 3.98306 5.97748 3.87429 5.57933 3.96551C5.16342 4.06066 5.01016 4.41608 4.95569 4.61931C4.88968 4.86572 4.63648 5.01191 4.39021 4.94609C4.14394 4.88004 3.99783 4.6267 4.06361 4.38028C4.24757 3.69277 4.72488 3.21356 5.37299 3.06506C6.24521 2.86576 7.12367 3.21841 7.50935 3.92394C7.83041 4.51146 7.74247 5.20082 7.2797 5.72321C7.15114 5.86824 7.01381 5.99526 6.88086 6.11789C6.54965 6.42389 6.34262 6.62851 6.30753 6.92388L6.30569 7.13242C6.30384 7.38669 6.0975 7.59061 5.84453 7.59061Z" fill="#1565D8"/>
<path d="M5.84443 8.97483C5.72441 8.97483 5.60439 8.92636 5.51899 8.84096C5.43128 8.75556 5.38281 8.63554 5.38281 8.51322C5.38281 8.3932 5.43128 8.27317 5.51899 8.18778C5.68979 8.01698 5.99907 8.01698 6.16987 8.18778C6.25758 8.27317 6.30605 8.3932 6.30605 8.51322C6.30605 8.63554 6.25758 8.75326 6.17218 8.84096C6.08447 8.92636 5.96676 8.97483 5.84443 8.97483Z" fill="#1565D8"/>
<path d="M5.98352 12C5.45843 12 4.93796 11.9316 4.43641 11.7965C2.27512 11.2148 0.582833 9.42338 0.12514 7.23242C-0.341324 5.00037 0.519591 2.65399 2.31874 1.25471C3.35877 0.445719 4.67045 0 6.01237 0C6.94137 0 7.86391 0.216162 8.68051 0.624699C10.6971 1.63415 12 3.74312 12 5.99781C12 7.83749 11.1324 9.61067 9.67922 10.7409C8.63551 11.5529 7.3229 12 5.98352 12ZM6.0126 0.92377C4.87495 0.92377 3.7643 1.30021 2.88561 1.98403C1.36296 3.1683 0.634072 5.15417 1.02899 7.04328C1.41628 8.8966 2.84799 10.4123 4.67645 10.9044C5.09975 11.0183 5.53967 11.0762 5.98352 11.0762H5.98375C7.11886 11.0762 8.22998 10.6982 9.11282 10.0116C10.3428 9.05502 11.077 7.55459 11.077 5.99781C11.077 4.08999 9.97443 2.30527 8.26783 1.45101C7.57863 1.10621 6.79896 0.92377 6.0126 0.92377Z" fill="#1565D8"/>
</svg>
