<svg width="12" height="12" viewBox="0 0 12 12" fill="none" xmlns="http://www.w3.org/2000/svg">
<path d="M8.80684 7.75717C9.53304 6.76622 9.85829 5.53762 9.71754 4.31716C9.57678 3.0967 8.9804 1.97439 8.04769 1.17476C7.11499 0.375134 5.91476 -0.0428383 4.68712 0.00446479C3.45949 0.0517679 2.29498 0.560858 1.42657 1.42988C0.558166 2.29891 0.0499094 3.46378 0.00348477 4.69146C-0.0429399 5.91913 0.375891 7.11906 1.17619 8.05119C1.97648 8.98332 3.09922 9.5789 4.31978 9.71878C5.54034 9.85866 6.76871 9.53253 7.75913 8.80563H7.75838C7.78088 8.83562 7.80488 8.86412 7.83188 8.89187L10.7193 11.7793C10.8599 11.92 11.0507 11.9991 11.2496 11.9992C11.4486 11.9992 11.6394 11.9203 11.7801 11.7796C11.9208 11.639 11.9999 11.4482 12 11.2493C12.0001 11.0504 11.9211 10.8595 11.7805 10.7188L8.89309 7.83141C8.86628 7.80427 8.83744 7.77995 8.80684 7.75717ZM9.00034 4.87427C9.00034 5.41596 8.89364 5.95233 8.68635 6.45278C8.47906 6.95323 8.17522 7.40795 7.7922 7.79098C7.40917 8.17401 6.95445 8.47784 6.454 8.68513C5.95355 8.89243 5.41717 8.99912 4.87549 8.99912C4.33381 8.99912 3.79743 8.89243 3.29698 8.68513C2.79653 8.47784 2.34181 8.17401 1.95878 7.79098C1.57576 7.40795 1.27192 6.95323 1.06463 6.45278C0.857338 5.95233 0.750645 5.41596 0.750645 4.87427C0.750645 3.7803 1.18523 2.73113 1.95878 1.95757C2.73234 1.18401 3.78151 0.749429 4.87549 0.749429C5.96947 0.749429 7.01864 1.18401 7.7922 1.95757C8.56575 2.73113 9.00034 3.7803 9.00034 4.87427Z" fill="#1565D8"/>
</svg>
