<svg width="14" height="14" viewBox="0 0 14 14" fill="none" xmlns="http://www.w3.org/2000/svg">
<path d="M7.93333 6.99719C7.93333 7.51365 7.51625 7.9309 7 7.9309C6.48375 7.9309 6.06667 7.51365 6.06667 6.99719V0.933708C6.06667 0.418126 6.48375 0 7 0C7.51625 0 7.93333 0.418126 7.93333 0.933708V6.99719ZM1.86667 6.99719C1.86667 9.83333 4.165 12.1326 7 12.1326C9.835 12.1326 12.1333 9.83333 12.1333 6.99719C12.1333 5.40989 11.4129 3.9889 10.2813 3.04644C9.88458 2.71673 9.82917 2.1282 10.1588 1.73167C10.4883 1.33513 11.0775 1.28115 11.4742 1.61087C13.0142 2.89471 14 4.83216 14 6.97093C14 10.8633 10.8646 14 7 14C3.13542 14 0 10.8633 0 6.97093C0 4.83216 0.984375 2.89471 2.52583 1.61087C2.9225 1.28115 3.51167 1.33513 3.84125 1.73167C4.14458 2.1282 4.11542 2.71673 3.71875 3.04644C2.58708 3.9889 1.86667 5.40989 1.86667 6.99719Z" fill="#FF9900"/>
</svg>
